<mxfile host="app.diagrams.net" modified="2021-04-14T00:29:10.664Z" agent="5.0 (Macintosh; Intel Mac OS X 11_2_1) AppleWebKit/537.36 (KHTML, like Gecko) Chrome/89.0.4389.114 Safari/537.36" etag="U76BYDdGaoZfdpDYOnkU" version="14.6.0" type="github">
  <diagram id="hrsuXSyvRO2hoxOjIHzt" name="Page-1">
    <mxGraphModel dx="2066" dy="1072" grid="1" gridSize="10" guides="1" tooltips="1" connect="1" arrows="1" fold="1" page="1" pageScale="1" pageWidth="827" pageHeight="1169" math="0" shadow="0">
      <root>
        <mxCell id="0" />
        <mxCell id="1" parent="0" />
        <mxCell id="NZtddUDTU7tDexE0VaOL-1" value="" style="rounded=0;whiteSpace=wrap;html=1;" vertex="1" parent="1">
          <mxGeometry y="40" width="820" height="60" as="geometry" />
        </mxCell>
        <mxCell id="NZtddUDTU7tDexE0VaOL-2" value="" style="whiteSpace=wrap;html=1;aspect=fixed;" vertex="1" parent="1">
          <mxGeometry x="160" y="140" width="80" height="80" as="geometry" />
        </mxCell>
        <mxCell id="NZtddUDTU7tDexE0VaOL-3" value="" style="whiteSpace=wrap;html=1;aspect=fixed;" vertex="1" parent="1">
          <mxGeometry x="280" y="140" width="80" height="80" as="geometry" />
        </mxCell>
        <mxCell id="NZtddUDTU7tDexE0VaOL-4" value="Eagle Eye" style="text;html=1;strokeColor=none;fillColor=none;align=center;verticalAlign=middle;whiteSpace=wrap;rounded=0;" vertex="1" parent="1">
          <mxGeometry x="160" y="240" width="70" height="20" as="geometry" />
        </mxCell>
        <mxCell id="NZtddUDTU7tDexE0VaOL-5" value="DataX" style="text;html=1;strokeColor=none;fillColor=none;align=center;verticalAlign=middle;whiteSpace=wrap;rounded=0;" vertex="1" parent="1">
          <mxGeometry x="285" y="240" width="70" height="20" as="geometry" />
        </mxCell>
        <mxCell id="NZtddUDTU7tDexE0VaOL-6" value="旭航数科LOGO" style="rounded=0;whiteSpace=wrap;html=1;" vertex="1" parent="1">
          <mxGeometry y="40" width="120" height="60" as="geometry" />
        </mxCell>
      </root>
    </mxGraphModel>
  </diagram>
</mxfile>
